<svg width="415" height="65" viewBox="0 0 415 65" fill="none" xmlns="http://www.w3.org/2000/svg">
<path d="M150.952 57.048C150.013 57.048 149.224 56.7493 148.584 56.152C147.987 55.512 147.688 54.7227 147.688 53.784V35.48C147.688 32.792 147.027 30.808 145.704 29.528C144.381 28.2053 142.653 27.544 140.52 27.544C138.301 27.544 136.467 28.312 135.016 29.848C133.608 31.384 132.904 33.3467 132.904 35.736H127.592C127.592 32.9627 128.189 30.5307 129.384 28.44C130.579 26.3067 132.243 24.6427 134.376 23.448C136.552 22.2533 139.027 21.656 141.8 21.656C144.232 21.656 146.387 22.1893 148.264 23.256C150.141 24.3227 151.592 25.9013 152.616 27.992C153.683 30.04 154.216 32.536 154.216 35.48V53.784C154.216 54.7227 153.917 55.512 153.32 56.152C152.723 56.7493 151.933 57.048 150.952 57.048ZM108.264 57.048C107.325 57.048 106.536 56.7493 105.896 56.152C105.299 55.512 105 54.7227 105 53.784V25.304C105 24.3227 105.299 23.5333 105.896 22.936C106.536 22.3387 107.325 22.04 108.264 22.04C109.245 22.04 110.035 22.3387 110.632 22.936C111.229 23.5333 111.528 24.3227 111.528 25.304V53.784C111.528 54.7227 111.229 55.512 110.632 56.152C110.035 56.7493 109.245 57.048 108.264 57.048ZM129.64 57.048C128.701 57.048 127.912 56.7493 127.272 56.152C126.675 55.512 126.376 54.7227 126.376 53.784V35.48C126.376 32.792 125.715 30.808 124.392 29.528C123.069 28.2053 121.341 27.544 119.208 27.544C116.989 27.544 115.155 28.312 113.704 29.848C112.253 31.384 111.528 33.3467 111.528 35.736H107.496C107.496 32.9627 108.051 30.5307 109.16 28.44C110.269 26.3067 111.805 24.6427 113.768 23.448C115.731 22.2533 117.971 21.656 120.488 21.656C122.92 21.656 125.075 22.1893 126.952 23.256C128.829 24.3227 130.28 25.9013 131.304 27.992C132.371 30.04 132.904 32.536 132.904 35.48V53.784C132.904 54.7227 132.605 55.512 132.008 56.152C131.411 56.7493 130.621 57.048 129.64 57.048Z" fill="white"/>
<path d="M181.51 57.24C177.969 57.24 174.812 56.4933 172.039 55C169.308 53.464 167.153 51.3733 165.574 48.728C164.038 46.04 163.271 42.968 163.271 39.512C163.271 36.0133 163.996 32.9413 165.447 30.296C166.94 27.608 168.988 25.5173 171.59 24.024C174.193 22.488 177.18 21.72 180.551 21.72C183.879 21.72 186.737 22.4667 189.126 23.96C191.516 25.4107 193.329 27.4373 194.566 30.04C195.846 32.6 196.487 35.5653 196.487 38.936C196.487 39.7467 196.209 40.4293 195.655 40.984C195.1 41.496 194.396 41.752 193.543 41.752H167.75V36.632H193.35L190.727 38.424C190.684 36.2907 190.257 34.392 189.447 32.728C188.636 31.0213 187.484 29.6773 185.991 28.696C184.497 27.7147 182.684 27.224 180.551 27.224C178.119 27.224 176.028 27.7573 174.279 28.824C172.572 29.8907 171.271 31.3627 170.375 33.24C169.479 35.0747 169.03 37.1653 169.03 39.512C169.03 41.8587 169.564 43.9493 170.63 45.784C171.697 47.6187 173.169 49.0693 175.047 50.136C176.924 51.2027 179.078 51.736 181.51 51.736C182.833 51.736 184.177 51.5013 185.543 51.032C186.951 50.52 188.081 49.944 188.935 49.304C189.575 48.8347 190.257 48.6 190.983 48.6C191.751 48.5573 192.412 48.7707 192.966 49.24C193.692 49.88 194.076 50.584 194.118 51.352C194.161 52.12 193.82 52.7813 193.094 53.336C191.644 54.488 189.831 55.4267 187.655 56.152C185.521 56.8773 183.473 57.24 181.51 57.24Z" fill="white"/>
<path d="M219.435 57.24C216.107 57.24 213.098 56.472 210.41 54.936C207.765 53.3573 205.653 51.224 204.074 48.536C202.538 45.848 201.771 42.8187 201.771 39.448C201.771 36.0773 202.475 33.0693 203.883 30.424C205.333 27.736 207.296 25.624 209.771 24.088C212.245 22.5093 215.04 21.72 218.155 21.72C220.672 21.72 222.997 22.2533 225.13 23.32C227.264 24.344 229.056 25.752 230.507 27.544V10.264C230.507 9.28267 230.805 8.49333 231.402 7.896C232.042 7.29867 232.832 7 233.771 7C234.752 7 235.541 7.29867 236.138 7.896C236.736 8.49333 237.034 9.28267 237.034 10.264V39.448C237.034 42.8187 236.245 45.848 234.667 48.536C233.131 51.224 231.04 53.3573 228.395 54.936C225.749 56.472 222.763 57.24 219.435 57.24ZM219.435 51.48C221.611 51.48 223.552 50.968 225.258 49.944C226.965 48.8773 228.309 47.4267 229.29 45.592C230.272 43.7573 230.763 41.7093 230.763 39.448C230.763 37.144 230.272 35.096 229.29 33.304C228.309 31.512 226.965 30.104 225.258 29.08C223.552 28.0133 221.611 27.48 219.435 27.48C217.301 27.48 215.36 28.0133 213.611 29.08C211.904 30.104 210.538 31.512 209.514 33.304C208.533 35.096 208.043 37.144 208.043 39.448C208.043 41.7093 208.533 43.7573 209.514 45.592C210.538 47.4267 211.904 48.8773 213.611 49.944C215.36 50.968 217.301 51.48 219.435 51.48Z" fill="white"/>
<path d="M251.698 35.096C251.698 32.536 252.317 30.2533 253.555 28.248C254.835 26.2 256.541 24.5787 258.674 23.384C260.808 22.1893 263.154 21.592 265.714 21.592C268.274 21.592 270.173 22.0187 271.41 22.872C272.69 23.6827 273.181 24.664 272.883 25.816C272.755 26.4133 272.499 26.8827 272.115 27.224C271.773 27.5227 271.368 27.7147 270.898 27.8C270.429 27.8853 269.917 27.864 269.362 27.736C266.632 27.1813 264.178 27.1387 262.003 27.608C259.827 28.0773 258.098 28.952 256.818 30.232C255.581 31.512 254.962 33.1333 254.962 35.096H251.698ZM251.762 56.984C250.738 56.984 249.949 56.728 249.395 56.216C248.84 55.6613 248.562 54.8507 248.562 53.784V25.176C248.562 24.152 248.84 23.3627 249.395 22.808C249.949 22.2533 250.738 21.976 251.762 21.976C252.829 21.976 253.618 22.2533 254.13 22.808C254.685 23.32 254.962 24.1093 254.962 25.176V53.784C254.962 54.808 254.685 55.5973 254.13 56.152C253.618 56.7067 252.829 56.984 251.762 56.984Z" fill="#33CCFF"/>
<path d="M293.573 57.24C290.032 57.24 286.874 56.4933 284.101 55C281.37 53.464 279.216 51.3733 277.637 48.728C276.101 46.04 275.333 42.968 275.333 39.512C275.333 36.0133 276.058 32.9413 277.509 30.296C279.002 27.608 281.05 25.5173 283.653 24.024C286.256 22.488 289.242 21.72 292.613 21.72C295.941 21.72 298.8 22.4667 301.189 23.96C303.578 25.4107 305.392 27.4373 306.629 30.04C307.909 32.6 308.549 35.5653 308.549 38.936C308.549 39.7467 308.272 40.4293 307.717 40.984C307.162 41.496 306.458 41.752 305.605 41.752H279.813V36.632H305.413L302.789 38.424C302.746 36.2907 302.32 34.392 301.509 32.728C300.698 31.0213 299.546 29.6773 298.053 28.696C296.56 27.7147 294.746 27.224 292.613 27.224C290.181 27.224 288.09 27.7573 286.341 28.824C284.634 29.8907 283.333 31.3627 282.437 33.24C281.541 35.0747 281.093 37.1653 281.093 39.512C281.093 41.8587 281.626 43.9493 282.693 45.784C283.76 47.6187 285.232 49.0693 287.109 50.136C288.986 51.2027 291.141 51.736 293.573 51.736C294.896 51.736 296.24 51.5013 297.605 51.032C299.013 50.52 300.144 49.944 300.997 49.304C301.637 48.8347 302.32 48.6 303.045 48.6C303.813 48.5573 304.474 48.7707 305.029 49.24C305.754 49.88 306.138 50.584 306.181 51.352C306.224 52.12 305.882 52.7813 305.157 53.336C303.706 54.488 301.893 55.4267 299.717 56.152C297.584 56.8773 295.536 57.24 293.573 57.24Z" fill="#33CCFF"/>
<path d="M334.475 57.24C331.147 57.24 328.16 56.472 325.515 54.936C322.87 53.3573 320.779 51.224 319.243 48.536C317.707 45.848 316.918 42.8187 316.875 39.448V10.264C316.875 9.28267 317.174 8.49333 317.771 7.896C318.411 7.29867 319.2 7 320.139 7C321.12 7 321.91 7.29867 322.507 7.896C323.104 8.49333 323.403 9.28267 323.403 10.264V27.544C324.896 25.752 326.688 24.344 328.779 23.32C330.912 22.2533 333.238 21.72 335.755 21.72C338.87 21.72 341.664 22.5093 344.139 24.088C346.614 25.624 348.555 27.736 349.963 30.424C351.414 33.0693 352.139 36.0773 352.139 39.448C352.139 42.8187 351.35 45.848 349.771 48.536C348.235 51.224 346.144 53.3573 343.499 54.936C340.854 56.472 337.846 57.24 334.475 57.24ZM334.475 51.48C336.651 51.48 338.592 50.968 340.299 49.944C342.006 48.8773 343.35 47.4267 344.331 45.592C345.355 43.7573 345.867 41.7093 345.867 39.448C345.867 37.144 345.355 35.096 344.331 33.304C343.35 31.512 342.006 30.104 340.299 29.08C338.592 28.0133 336.651 27.48 334.475 27.48C332.342 27.48 330.4 28.0133 328.651 29.08C326.944 30.104 325.6 31.512 324.619 33.304C323.638 35.096 323.147 37.144 323.147 39.448C323.147 41.7093 323.638 43.7573 324.619 45.592C325.6 47.4267 326.944 48.8773 328.651 49.944C330.4 50.968 332.342 51.48 334.475 51.48Z" fill="#33CCFF"/>
<path d="M378.323 57.24C374.782 57.24 371.624 56.4933 368.851 55C366.12 53.464 363.966 51.3733 362.387 48.728C360.851 46.04 360.083 42.968 360.083 39.512C360.083 36.0133 360.808 32.9413 362.259 30.296C363.752 27.608 365.8 25.5173 368.403 24.024C371.006 22.488 373.992 21.72 377.363 21.72C380.691 21.72 383.55 22.4667 385.939 23.96C388.328 25.4107 390.142 27.4373 391.379 30.04C392.659 32.6 393.299 35.5653 393.299 38.936C393.299 39.7467 393.022 40.4293 392.467 40.984C391.912 41.496 391.208 41.752 390.355 41.752H364.563V36.632H390.163L387.539 38.424C387.496 36.2907 387.07 34.392 386.259 32.728C385.448 31.0213 384.296 29.6773 382.803 28.696C381.31 27.7147 379.496 27.224 377.363 27.224C374.931 27.224 372.84 27.7573 371.091 28.824C369.384 29.8907 368.083 31.3627 367.187 33.24C366.291 35.0747 365.843 37.1653 365.843 39.512C365.843 41.8587 366.376 43.9493 367.443 45.784C368.51 47.6187 369.982 49.0693 371.859 50.136C373.736 51.2027 375.891 51.736 378.323 51.736C379.646 51.736 380.99 51.5013 382.355 51.032C383.763 50.52 384.894 49.944 385.747 49.304C386.387 48.8347 387.07 48.6 387.795 48.6C388.563 48.5573 389.224 48.7707 389.779 49.24C390.504 49.88 390.888 50.584 390.931 51.352C390.974 52.12 390.632 52.7813 389.907 53.336C388.456 54.488 386.643 55.4267 384.467 56.152C382.334 56.8773 380.286 57.24 378.323 57.24Z" fill="#33CCFF"/>
<path d="M409.945 56.984C408.068 56.984 406.404 56.472 404.953 55.448C403.502 54.424 402.372 53.0373 401.561 51.288C400.75 49.496 400.345 47.448 400.345 45.144V10.2C400.345 9.26133 400.644 8.49333 401.241 7.896C401.838 7.29867 402.606 7 403.545 7C404.484 7 405.252 7.29867 405.849 7.896C406.446 8.49333 406.745 9.26133 406.745 10.2V45.144C406.745 46.7227 407.044 48.024 407.641 49.048C408.238 50.072 409.006 50.584 409.945 50.584H411.545C412.398 50.584 413.081 50.8827 413.593 51.48C414.148 52.0773 414.425 52.8453 414.425 53.784C414.425 54.7227 414.02 55.4907 413.209 56.088C412.398 56.6853 411.353 56.984 410.073 56.984H409.945Z" fill="#33CCFF"/>
<path d="M80 13L60 0L13 46L80 39V13Z" fill="#008CFF"/>
<path d="M20 0L0 13L20 51L40 13L20 0Z" fill="#005FFF"/>
<path d="M20 52L40 65L80 39L43 15L20 52Z" fill="#33CCFF"/>
<path d="M20 26L0 13V39L20 52L60 26V0L20 26Z" fill="white"/>
</svg>
